<svg xmlns="http://www.w3.org/2000/svg" viewBox="0 0 1440 320"><path fill="#ffffff" fill-opacity="1" d="M0,32L34.3,74.7C68.6,117,137,203,206,213.3C274.3,224,343,160,411,160C480,160,549,224,617,234.7C685.7,245,754,203,823,186.7C891.4,171,960,181,1029,186.7C1097.1,192,1166,192,1234,176C1302.9,160,1371,128,1406,112L1440,96L1440,320L1405.7,320C1371.4,320,1303,320,1234,320C1165.7,320,1097,320,1029,320C960,320,891,320,823,320C754.3,320,686,320,617,320C548.6,320,480,320,411,320C342.9,320,274,320,206,320C137.1,320,69,320,34,320L0,320Z"></path></svg>
